<svg width="32" height="32" viewBox="0 0 32 32" fill="none" xmlns="http://www.w3.org/2000/svg">
<path d="M14.8786 10.5379L14.0165 10.0312C13.9416 10.1586 13.7852 10.2124 13.6478 10.1582L12.893 9.86006C11.5429 9.3268 10.0028 9.75412 9.12049 10.9068L8.77159 11.3626C7.34608 13.2249 7.81695 15.9079 9.79141 17.1735L10.8889 17.877V23.3682V24.843L12.259 24.2972C14.6607 23.3404 17.3377 23.3404 19.7394 24.2972L21.1095 24.843V23.3682V17.877L22.2069 17.1735C24.1814 15.9079 24.6523 13.2249 23.2268 11.3626L22.8779 10.9068C21.9955 9.75412 20.4555 9.3268 19.1053 9.86006L18.3505 10.1582C18.2132 10.2124 18.0567 10.1586 17.9819 10.0312C17.0928 8.51859 14.9055 8.51859 14.0165 10.0312L14.8786 10.5379Z" stroke="#AFB5C6" stroke-width="2"/>
</svg>
