<svg width="32" height="32" viewBox="0 0 32 32" fill="none" xmlns="http://www.w3.org/2000/svg">
<path d="M6.73633 24.0726H21.6814M6.73633 27.6262H25.3679V24.0726H21.6814M21.6814 24.0726V20.5189H17.995M6.73633 20.5189H17.995M17.995 20.5189V16.9653H6.73633" stroke="#AFB5C6" stroke-width="2"/>
<path d="M8.64336 4.4209L7.84629 5.21797C7.29603 5.76824 7.29603 6.66039 7.84629 7.21065L7.94593 7.31029C8.44116 7.80553 8.44116 8.60846 7.94593 9.1037C7.45069 9.59894 7.45069 10.4019 7.94593 10.8971L8.84263 11.7938" stroke="#AFB5C6" stroke-width="2"/>
<path d="M14.3367 4.4209L13.5397 5.21797C12.9894 5.76824 12.9894 6.66039 13.5397 7.21065L13.6393 7.31029C14.1345 7.80553 14.1345 8.60846 13.6393 9.1037C13.144 9.59894 13.144 10.4019 13.6393 10.8971L14.536 11.7938" stroke="#AFB5C6" stroke-width="2"/>
</svg>
