<svg width="32" height="32" viewBox="0 0 32 32" fill="none" xmlns="http://www.w3.org/2000/svg">
<path d="M27.797 23.2835L25.8315 21.318C24.7459 20.2325 22.986 20.2325 21.9005 21.318V21.318C20.8149 22.4036 19.055 22.4036 17.9695 21.318V21.318C16.8839 20.2325 15.124 20.2325 14.0384 21.318V21.318C12.9529 22.4036 11.193 22.4036 10.1074 21.318V21.318C9.02193 20.2325 7.26196 20.2325 6.17644 21.318L4.21094 23.2835" stroke="#AFB5C6" stroke-width="2"/>
<path d="M27.797 17.9229L25.8315 15.9574C24.7459 14.8719 22.986 14.8719 21.9005 15.9574V15.9574C20.8149 17.043 19.055 17.043 17.9695 15.9574V15.9574C16.8839 14.8719 15.124 14.8719 14.0384 15.9574V15.9574C12.9529 17.043 11.193 17.043 10.1074 15.9574V15.9574C9.02193 14.8719 7.26196 14.8719 6.17644 15.9574L4.21094 17.9229" stroke="#AFB5C6" stroke-width="2"/>
<path d="M27.797 12.5626L25.8315 10.5971C24.7459 9.51158 22.986 9.51158 21.9005 10.5971V10.5971C20.8149 11.6826 19.055 11.6826 17.9695 10.5971V10.5971C16.8839 9.51158 15.124 9.51158 14.0384 10.5971V10.5971C12.9529 11.6826 11.193 11.6826 10.1074 10.5971V10.5971C9.02193 9.51158 7.26196 9.51158 6.17644 10.5971L4.21094 12.5626" stroke="#AFB5C6" stroke-width="2"/>
</svg>
