<svg width="32" height="32" viewBox="0 0 32 32" fill="none" xmlns="http://www.w3.org/2000/svg">
<path d="M9.7373 19.158C9.7373 20.8148 8.39416 22.158 6.7373 22.158C5.08045 22.158 3.7373 20.8148 3.7373 19.158C3.7373 17.5011 5.08045 16.158 6.7373 16.158C8.39416 16.158 9.7373 17.5011 9.7373 19.158Z" stroke="#AFB5C6" stroke-width="2"/>
<path d="M25.5264 19.158C25.5264 20.8148 24.1832 22.158 22.5264 22.158C20.8695 22.158 19.5264 20.8148 19.5264 19.158C19.5264 17.5011 20.8695 16.158 22.5264 16.158C24.1832 16.158 25.5264 17.5011 25.5264 19.158Z" stroke="#AFB5C6" stroke-width="2"/>
<path d="M20.8425 18.4211H16.8425M7.68457 18.4211H11.7898M11.7898 18.4211V12.4211H8.31615M11.7898 18.4211H16.8425M16.8425 18.4211V9.26318H12.8425" stroke="#AFB5C6" stroke-width="2"/>
</svg>
