<svg width="32" height="32" viewBox="0 0 32 32" fill="none" xmlns="http://www.w3.org/2000/svg">
<rect x="2.89453" y="16.3684" width="12.9474" height="12.9474" stroke="#AFB5C6" stroke-width="2"/>
<rect x="16.1572" y="16.3684" width="12.9474" height="12.9474" stroke="#AFB5C6" stroke-width="2"/>
<rect x="9.63184" y="3.10522" width="12.9474" height="12.9474" stroke="#AFB5C6" stroke-width="2"/>
<path d="M9.86085 24.4518L10.3493 25.8948H11.3682L9.1619 19.7896H8.10927L5.89453 25.8948H6.91348L7.4019 24.4518H9.86085ZM7.6798 23.6064L8.63138 20.7203H8.64822L9.59138 23.6064H7.6798Z" fill="#AFB5C6"/>
<path d="M24.6128 21.3265C24.6128 20.3446 23.9185 19.7896 22.7177 19.7896H20.21V25.8948H22.8566C24.0655 25.8948 24.8415 25.2886 24.8415 24.1102C24.8415 23.1965 24.3188 22.7269 23.7061 22.6159V22.5988C24.1881 22.428 24.6128 22.078 24.6128 21.3265ZM21.182 22.317V20.652H22.7422C23.3222 20.652 23.6408 20.9508 23.6408 21.4888C23.6408 22.0267 23.3794 22.317 22.685 22.317H21.182ZM21.182 23.077H22.8893C23.5019 23.077 23.8695 23.4271 23.8695 24.0504C23.8695 24.6225 23.6163 25.0324 22.7831 25.0324H21.182V23.077Z" fill="#AFB5C6"/>
<path d="M17.7643 8.66526H18.7368C18.5979 7.46879 17.6989 6.52637 16.2196 6.52637C14.5361 6.52637 13.4736 7.81298 13.4736 9.5749C13.4736 11.345 14.5361 12.6316 16.2196 12.6316C17.707 12.6316 18.606 11.6892 18.7368 10.3698H17.7643C17.6989 11.0828 17.2821 11.7957 16.1951 11.7957C14.9365 11.7957 14.438 10.7386 14.438 9.5749C14.438 8.41941 14.9365 7.36226 16.1951 7.36226C17.2739 7.36226 17.658 8.07522 17.7643 8.66526Z" fill="#AFB5C6"/>
</svg>
