<svg width="32" height="32" viewBox="0 0 32 32" fill="none" xmlns="http://www.w3.org/2000/svg">
<path d="M12.5253 16.1637L9.89745 19.3259C7.80144 21.8482 10.8744 25.3537 13.6494 23.606C14.5489 23.0395 15.6945 23.0184 16.6183 23.5445C19.6458 25.2686 22.8164 21.4378 20.4589 18.8725L17.8476 16.031C16.3991 14.4549 13.8934 14.5174 12.5253 16.1637Z" stroke="#AFB5C6" stroke-width="2"/>
<rect x="4.62199" y="12.1892" width="2.51356" height="4.95841" rx="1.25678" transform="rotate(-40.6146 4.62199 12.1892)" stroke="#AFB5C6" stroke-width="2"/>
<rect x="10.4365" y="6.05095" width="2.51356" height="4.95841" rx="1.25678" transform="rotate(-13.5923 10.4365 6.05095)" stroke="#AFB5C6" stroke-width="2"/>
<rect x="-1.41007" y="0.108137" width="2.51356" height="4.95841" rx="1.25678" transform="matrix(-0.759105 -0.650968 -0.650968 0.759106 26.3829 11.1892)" stroke="#AFB5C6" stroke-width="2"/>
<rect x="-1.207" y="0.736981" width="2.51356" height="4.95841" rx="1.25678" transform="matrix(-0.971993 -0.235011 -0.235011 0.971993 20.5684 5.05095)" stroke="#AFB5C6" stroke-width="2"/>
</svg>
